HIERARCHY
ROOT Hips
{
	OFFSET 0.000000 0.000000 0.000000 
	CHANNELS 6 Xposition Yposition Zposition Yrotation Xrotation Zrotation
	JOINT Spine
	{
		OFFSET 0.000000 0.072080 0.012321 
		CHANNELS 3 Xrotation Yrotation Zrotation
		JOINT Spine1
		{
			OFFSET 0.000000 0.126984 -0.001294 
			CHANNELS 3 Xrotation Yrotation Zrotation
			JOINT Spine2
			{
				OFFSET 0.000000 0.106559 -0.010096 
				CHANNELS 3 Xrotation Yrotation Zrotation
				JOINT Neck
				{
					OFFSET 0.000000 0.108417 -0.034017 
					CHANNELS 3 Xrotation Yrotation Zrotation
					JOINT Neck1
					{
						OFFSET 0.000000 0.033906 0.007241 
						CHANNELS 3 Xrotation Yrotation Zrotation
						JOINT Head
						{
							OFFSET 0.000000 0.031458 0.006707 
							CHANNELS 3 Xrotation Yrotation Zrotation
							End Site
							{
								OFFSET 0.000000 0.179920 0.000962 
							}
						}
					}
				}
				JOINT LeftShoulder
				{
					OFFSET 0.048002 0.079586 -0.029634 
					CHANNELS 3 Zrotation Xrotation Yrotation
					JOINT LeftArm
					{
						OFFSET 0.096243 -0.008695 -0.014012 
						CHANNELS 3 Zrotation Xrotation Yrotation
						JOINT LeftForeArm
						{
							OFFSET 0.216305 0.000000 0.000000 
							CHANNELS 3 Xrotation Zrotation Yrotation
							JOINT LeftHand
							{
								OFFSET 0.217764 0.000000 0.000000 
								CHANNELS 3 Zrotation Yrotation Xrotation
								JOINT LeftHandThumb1
								{
									OFFSET 0.018582 -0.007835 0.020476 
									CHANNELS 3 Zrotation Xrotation Yrotation
									JOINT LeftHandThumb2
									{
										OFFSET 0.026269 -0.007835 0.022186 
										CHANNELS 3 Zrotation Xrotation Yrotation
										JOINT LeftHandThumb3
										{
											OFFSET 0.035170 -0.010504 0.017018 
											CHANNELS 3 Zrotation Xrotation Yrotation
											End Site
											{
												OFFSET 0.020312 -0.007813 0.007813 
											}
										}
									}
								}
								JOINT LeftHandMiddle1
								{
									OFFSET 0.081749 0.004803 0.003358 
									CHANNELS 3 Zrotation Xrotation Yrotation
									JOINT LeftHandMiddle2
									{
										OFFSET 0.045251 0.000000 0.000000 
										CHANNELS 3 Zrotation Xrotation Yrotation
										JOINT LeftHandMiddle3
										{
											OFFSET 0.029009 0.000000 0.000000 
											CHANNELS 3 Zrotation Xrotation Yrotation
											End Site
											{
												OFFSET 0.017969 0.000000 0.000000 
											}
										}
									}
								}
								JOINT LeftHandIndex1
								{
									OFFSET 0.081207 0.004803 0.021137 
									CHANNELS 3 Zrotation Xrotation Yrotation
									JOINT LeftHandIndex2
									{
										OFFSET 0.043354 0.000000 0.000000 
										CHANNELS 3 Zrotation Xrotation Yrotation
										JOINT LeftHandIndex3
										{
											OFFSET 0.026493 0.000000 0.000000 
											CHANNELS 3 Zrotation Xrotation Yrotation
											End Site
											{
												OFFSET 0.019531 0.000000 0.000000 
											}
										}
									}
								}
								JOINT LeftHandRing1
								{
									OFFSET 0.080666 0.002509 -0.014652 
									CHANNELS 3 Zrotation Xrotation Yrotation
									JOINT LeftHandRing2
									{
										OFFSET 0.042541 0.000000 0.000000 
										CHANNELS 3 Zrotation Xrotation Yrotation
										JOINT LeftHandRing3
										{
											OFFSET 0.029009 0.000000 0.000000 
											CHANNELS 3 Zrotation Xrotation Yrotation
											End Site
											{
												OFFSET 0.015625 0.000000 0.000000 
											}
										}
									}
								}
								JOINT LeftHandPinky1
								{
									OFFSET 0.078227 -0.000612 -0.030993 
									CHANNELS 3 Zrotation Xrotation Yrotation
									JOINT LeftHandPinky2
									{
										OFFSET 0.028721 0.000000 0.000000 
										CHANNELS 3 Zrotation Xrotation Yrotation
										JOINT LeftHandPinky3
										{
											OFFSET 0.021963 0.000000 0.000000 
											CHANNELS 3 Zrotation Xrotation Yrotation
											End Site
											{
												OFFSET 0.022656 0.000000 0.000000 
											}
										}
									}
								}
							}
						}
					}
				}
				JOINT RightShoulder
				{
					OFFSET -0.047970 0.079586 -0.029634 
					CHANNELS 3 Zrotation Xrotation Yrotation
					JOINT RightArm
					{
						OFFSET -0.096274 -0.008695 -0.014012 
						CHANNELS 3 Zrotation Xrotation Yrotation
						JOINT RightForeArm
						{
							OFFSET -0.216305 0.000000 0.000000 
							CHANNELS 3 Xrotation Zrotation Yrotation
							JOINT RightHand
							{
								OFFSET -0.217764 0.000000 0.000000 
								CHANNELS 3 Zrotation Yrotation Xrotation
								JOINT RightHandThumb1
								{
									OFFSET -0.019670 -0.007318 0.019638 
									CHANNELS 3 Zrotation Xrotation Yrotation
									JOINT RightHandThumb2
									{
										OFFSET -0.025498 -0.008492 0.023179 
										CHANNELS 3 Zrotation Xrotation Yrotation
										JOINT RightHandThumb3
										{
											OFFSET -0.034504 -0.010705 0.016680 
											CHANNELS 3 Zrotation Xrotation Yrotation
											End Site
											{
												OFFSET -0.020312 -0.007813 0.007813 
											}
										}
									}
								}
								JOINT RightHandIndex1
								{
									OFFSET -0.081770 0.003825 0.021187 
									CHANNELS 3 Zrotation Xrotation Yrotation
									JOINT RightHandIndex2
									{
										OFFSET -0.042006 0.000000 0.000000 
										CHANNELS 3 Zrotation Xrotation Yrotation
										JOINT RightHandIndex3
										{
											OFFSET -0.026449 0.000000 0.000000 
											CHANNELS 3 Zrotation Xrotation Yrotation
											End Site
											{
												OFFSET -0.020312 0.000000 0.000000 
											}
										}
									}
								}
								JOINT RightHandMiddle1
								{
									OFFSET -0.084059 0.003825 0.003342 
									CHANNELS 3 Zrotation Xrotation Yrotation
									JOINT RightHandMiddle2
									{
										OFFSET -0.043881 0.000000 0.000000 
										CHANNELS 3 Zrotation Xrotation Yrotation
										JOINT RightHandMiddle3
										{
											OFFSET -0.029191 0.000000 0.000000 
											CHANNELS 3 Zrotation Xrotation Yrotation
											End Site
											{
												OFFSET -0.017969 0.000000 0.000000 
											}
										}
									}
								}
								JOINT RightHandRing1
								{
									OFFSET -0.081798 0.003030 -0.015127 
									CHANNELS 3 Zrotation Xrotation Yrotation
									JOINT RightHandRing2
									{
										OFFSET -0.042198 0.000000 0.000000 
										CHANNELS 3 Zrotation Xrotation Yrotation
										JOINT RightHandRing3
										{
											OFFSET -0.026497 0.000000 0.000000 
											CHANNELS 3 Zrotation Xrotation Yrotation
											End Site
											{
												OFFSET -0.017188 0.000000 0.000000 
											}
										}
									}
								}
								JOINT RightHandPinky1
								{
									OFFSET -0.077902 -0.000930 -0.030891 
									CHANNELS 3 Zrotation Xrotation Yrotation
									JOINT RightHandPinky2
									{
										OFFSET -0.028538 0.000000 0.000000 
										CHANNELS 3 Zrotation Xrotation Yrotation
										JOINT RightHandPinky3
										{
											OFFSET -0.021734 0.000000 0.000000 
											CHANNELS 3 Zrotation Xrotation Yrotation
											End Site
											{
												OFFSET -0.022656 0.000000 0.000000 
											}
										}
									}
								}
							}
						}
					}
				}
			}
		}
	}
	JOINT LeftUpLeg
	{
		OFFSET 0.075264 -0.025573 0.000000 
		CHANNELS 3 Xrotation Yrotation Zrotation
		JOINT LeftLeg
		{
			OFFSET 0.000000 -0.326016 -0.013516 
			CHANNELS 3 Xrotation Yrotation Zrotation
			JOINT LeftFoot
			{
				OFFSET 0.000098 -0.306172 -0.006623 
				CHANNELS 3 Xrotation Yrotation Zrotation
				JOINT LeftToeBase
				{
					OFFSET -0.001432 -0.095259 0.064705 
					CHANNELS 3 Xrotation Yrotation Zrotation
					End Site
					{
						OFFSET 0.000000 0.000000 0.079438 
					}
				}
			}
		}
	}
	JOINT RightUpLeg
	{
		OFFSET -0.075264 -0.025573 0.000000 
		CHANNELS 3 Xrotation Yrotation Zrotation
		JOINT RightLeg
		{
			OFFSET 0.000000 -0.326016 -0.013516 
			CHANNELS 3 Xrotation Yrotation Zrotation
			JOINT RightFoot
			{
				OFFSET 0.000098 -0.306172 -0.006623 
				CHANNELS 3 Xrotation Yrotation Zrotation
				JOINT RightToeBase
				{
					OFFSET -0.001432 -0.095259 0.064705 
					CHANNELS 3 Xrotation Yrotation Zrotation
					End Site
					{
						OFFSET 0.000025 0.000000 0.079438 
					}
				}
			}
		}
	}
}
MOTION
Frames: 7
Frame Time: 0.033333
0.688409 0.729986 -0.038350 80.594597 0.357800 4.581700 3.372900 -5.619800 -1.900200 1.529200 -14.781500 1.518500 1.360300 -14.730900 1.817500 3.511500 -6.053000 -0.389400 -0.000000 0.000000 -0.000000 -12.152900 -39.359402 -1.454000 -15.999800 6.421200 -18.112900 -64.923203 -13.259900 13.317500 0.000000 -0.000000 -0.112600 -13.773500 20.221800 33.461700 -4.420000 14.134300 13.888700 7.380200 -0.020600 13.983600 2.675700 1.097900 6.128600 -36.084499 -1.821200 2.825000 -22.078300 -0.305400 0.705500 -16.342600 -0.020100 0.227300 -22.948700 -0.325000 -0.633400 -14.758600 -0.179300 0.741400 -15.745600 -0.015600 -0.237100 -45.326500 -2.368900 7.195300 -24.501600 0.108300 0.286500 -20.851500 0.252900 -0.035800 -49.830101 -4.313900 10.722400 -32.627102 -0.147300 -0.297300 -18.472200 -0.155700 0.787200 7.206000 3.914700 2.843200 51.136501 29.115700 23.420200 0.000000 -0.000000 28.769899 -26.474501 19.591299 11.932500 8.488600 17.667200 -5.680500 -7.554300 -9.122200 -5.885900 -2.877400 -2.124400 -5.436800 -0.796300 0.086300 2.171800 0.064300 0.017700 -0.788000 -2.447900 -0.073100 1.262900 10.578100 -0.556100 -2.286300 0.110700 0.032900 -0.821100 -4.764000 0.000400 -0.030800 14.738200 -0.965500 -7.894300 0.155700 0.002600 -0.343300 -9.408100 -0.143600 2.005000 19.074301 -1.290800 -10.410000 0.419800 -0.002700 0.169300 -12.437300 -0.083300 2.407900 -19.398600 4.913400 -8.361100 25.863100 8.626600 1.041500 -6.767200 0.740100 3.335200 -2.834400 -0.000000 -0.000000 -10.985200 -3.948700 -5.422600 61.452400 -9.528800 -6.949000 17.601101 -3.874000 3.897100 -0.346000 0.000000 -0.000000 
0.732003 0.738122 -0.038103 80.888802 0.248300 3.960500 3.568800 -6.262100 -1.126500 1.671400 -14.991000 1.702100 1.505200 -14.940100 1.999900 4.035200 -5.791500 -0.544600 -0.000000 0.000000 -0.000000 -12.244800 -38.531101 -1.608400 -16.346100 6.542600 -18.390800 -64.125397 -8.514300 6.817100 0.000000 -0.000000 -0.819200 -16.337799 18.220600 33.720901 -4.428700 14.116100 13.802200 7.912900 -3.698800 15.766300 2.944400 0.997600 7.624700 -34.540501 -1.750600 2.574800 -22.095600 -0.305700 0.705400 -16.370300 -0.020100 0.227200 -21.144600 -0.208800 -0.821200 -14.678200 -0.178300 0.741800 -15.671300 -0.015700 -0.237000 -44.249699 -2.331200 7.281100 -24.576300 0.108600 0.286400 -20.955299 0.253900 -0.035700 -49.032600 -4.239600 10.601400 -32.799599 -0.147900 -0.298200 -18.645599 -0.157000 0.786400 7.710000 4.007300 3.442800 56.033199 25.785700 19.674299 -0.000000 0.000000 22.061501 -24.884100 21.613100 18.002199 7.854600 16.699100 -9.344400 -8.067400 -7.712200 -3.427700 -2.652400 -2.030100 -5.970500 -4.142600 0.324000 1.721500 0.519800 0.011400 -0.797400 -1.720800 -0.072600 1.248900 6.679000 -0.331300 -2.736000 0.870300 0.020400 -0.835300 -3.844800 -0.000100 -0.047700 12.290000 -0.856400 -8.639900 1.123800 0.006100 -0.360700 -8.127500 -0.127800 1.984300 16.851299 -1.118400 -11.496800 1.959300 -0.011700 0.140700 -10.605600 -0.091800 2.371200 -12.494100 5.442600 -8.457600 20.570299 7.071900 1.097400 -8.507400 0.518200 3.924900 -3.151900 -0.000000 -0.000000 -17.288700 -1.636100 -2.151300 62.013199 -9.392900 -6.566300 9.234200 -9.455500 1.974000 -0.574500 0.000000 0.000000 
0.775663 0.742868 -0.036298 81.346298 0.238200 3.109800 3.664700 -7.140600 -0.388900 1.794700 -15.297300 1.873100 1.631500 -15.248400 2.168700 4.514300 -5.483800 -0.509400 -0.000000 0.000000 -0.000000 -12.214200 -37.572498 -1.406400 -16.320499 6.628400 -19.038401 -62.342098 -3.897700 1.204500 -0.000000 0.000000 -2.485200 -20.003901 15.383900 32.151699 -4.457000 14.049500 13.493800 9.221400 -6.049100 16.311300 3.267000 0.822200 8.825800 -31.346701 -1.608200 2.658800 -21.572001 -0.298200 0.709500 -15.833400 -0.019500 0.228900 -16.999500 -0.000900 -0.998500 -14.316800 -0.173600 0.743500 -15.301400 -0.015800 -0.236400 -41.482700 -2.237600 7.635700 -24.106001 0.106400 0.286900 -20.444000 0.248700 -0.036000 -46.486401 -4.072400 10.602900 -32.372501 -0.146500 -0.296100 -18.221500 -0.153800 0.788500 8.507000 4.104800 3.721000 59.977001 20.366400 15.852600 0.000000 -0.000000 16.720800 -19.688801 22.186399 28.426500 7.223800 15.879700 -12.539900 -8.582100 -6.134500 -1.322500 -2.274800 -1.873800 -6.852900 -6.098600 0.505000 1.397100 1.538900 -0.003000 -0.817100 -0.080900 -0.072100 1.217300 4.165400 -0.188000 -3.048600 2.395300 -0.005100 -0.863400 -2.035100 -0.001800 -0.080800 11.185900 -0.815900 -9.156600 2.989400 0.012000 -0.394300 -5.782800 -0.100000 1.945600 16.174700 -1.129600 -12.219300 4.642000 -0.029100 0.091600 -7.775800 -0.107100 2.315200 -5.450700 6.366600 -7.936400 14.631000 4.232000 0.808600 -9.213300 0.747800 4.543000 -3.308900 -0.000000 -0.000000 -22.468500 0.040500 1.268300 57.918201 -9.256100 -6.568000 2.723200 -14.652500 -0.241700 -0.141300 0.000000 -0.000000 
0.820409 0.742930 -0.033534 82.382202 0.371200 2.344500 3.702200 -8.284900 0.035600 1.851600 -15.696300 1.987500 1.690800 -15.650600 2.281200 4.712600 -5.211300 -0.351200 -0.000000 0.000000 -0.000000 -12.220800 -36.886501 -0.879500 -15.989200 6.705700 -20.236300 -59.344501 1.092000 -3.401400 0.000000 0.000000 -5.330100 -24.072599 12.247600 29.282101 -4.493700 13.962900 13.093200 10.454400 -6.537800 15.758100 3.451200 0.621900 9.493800 -28.636999 -1.484200 2.833600 -21.023399 -0.290400 0.713800 -15.277500 -0.018900 0.230600 -13.316900 0.173600 -1.140800 -13.933700 -0.168600 0.745300 -14.913900 -0.016000 -0.235800 -38.980598 -2.149400 7.977700 -23.639601 0.104200 0.287600 -19.957600 0.243700 -0.036200 -44.168598 -3.912300 10.613500 -31.954800 -0.145000 -0.294100 -17.804300 -0.150800 0.790500 9.690800 4.152200 3.185000 62.117298 15.265600 11.595600 -0.000000 -0.000000 14.051600 -13.119100 20.222500 40.350300 6.929100 15.532300 -14.366900 -8.988400 -5.079000 -0.034800 -1.897800 -1.719600 -7.722400 -5.972700 0.579300 1.226200 2.936800 -0.023300 -0.843800 2.270000 -0.073000 1.171900 4.021800 -0.181200 -3.188100 4.584600 -0.043000 -0.902400 0.514700 -0.006100 -0.127500 12.190200 -0.886000 -9.372900 5.604900 0.018400 -0.441600 -2.616600 -0.065100 1.891600 17.727200 -1.364000 -12.456200 8.262300 -0.056200 0.026700 -4.199600 -0.130500 2.245700 1.321500 7.770300 -7.079000 9.050100 0.362600 -0.001400 -9.999700 0.967600 5.022300 -3.054200 0.000000 -0.000000 -26.526300 0.753900 3.760500 49.865101 -9.055900 -6.543800 -0.907600 -17.889900 -2.019900 -0.821900 -0.097800 3.778500 
0.866817 0.738070 -0.030334 84.050301 0.684700 1.874100 3.665200 -9.577700 0.033600 1.795700 -16.125401 2.033500 1.636700 -16.082899 2.328200 4.582800 -5.036900 -0.136200 -0.000000 0.000000 -0.000000 -12.334700 -36.664001 -0.229000 -15.389800 6.763600 -21.886801 -55.007999 6.397500 -7.228800 -0.000000 0.000000 -9.163600 -26.915001 9.100100 25.899599 -4.536600 13.864500 12.636200 10.934000 -5.939200 14.506900 3.443500 0.421400 9.548100 -27.471901 -1.429500 2.892000 -20.549999 -0.283500 0.717500 -14.806900 -0.018300 0.232100 -11.771600 0.228100 -1.217200 -13.520300 -0.163200 0.747200 -14.502500 -0.016200 -0.235100 -37.734600 -2.102000 8.109200 -23.252600 0.102300 0.288100 -19.583200 0.239900 -0.036300 -43.046799 -3.791600 10.573900 -31.571501 -0.143700 -0.292200 -17.420000 -0.147900 0.792300 11.081400 4.097100 1.678500 62.832100 12.734700 6.473800 -0.000000 0.000000 14.134100 -7.610900 15.816900 49.761200 7.107700 15.690300 -14.727100 -9.226600 -4.959800 0.438400 -1.669900 -1.627900 -8.240500 -3.995800 0.550700 1.199100 4.384700 -0.044900 -0.870900 4.881900 -0.076100 1.121600 6.240600 -0.310500 -3.194900 7.151600 -0.089400 -0.946300 3.497500 -0.013700 -0.181700 15.198000 -1.066400 -9.394400 8.638000 0.023100 -0.496800 1.025700 -0.028700 1.827200 21.320400 -1.767500 -12.319000 12.430500 -0.092500 -0.045800 -0.150700 -0.162100 2.168900 7.422000 9.604600 -6.065500 4.724900 -3.554200 -1.241000 -11.455700 0.527100 5.189900 -2.769800 0.000000 -0.000000 -29.954201 0.571600 4.817300 39.861900 -8.355000 -6.108300 -3.472300 -18.387199 -2.279300 1.063100 0.000000 0.000000 
0.915055 0.729229 -0.027108 86.004799 1.127500 1.745100 3.527300 -10.851400 -0.292100 1.625200 -16.519501 2.018600 1.467700 -16.479200 2.319300 4.231200 -4.956900 0.062400 -0.000000 0.000000 -0.000000 -12.464800 -36.769600 0.305600 -14.680600 6.790200 -23.608400 -49.578701 11.221200 -10.584500 -0.000000 -0.000000 -13.442500 -27.525299 6.085900 22.828100 -4.586800 13.753100 12.115700 10.628400 -5.331000 13.011100 3.296400 0.211500 9.160100 -27.588200 -1.433700 2.776000 -20.052000 -0.276300 0.721300 -14.312900 -0.017800 0.233700 -12.197200 0.168400 -1.240300 -13.000400 -0.156400 0.749500 -13.985400 -0.016400 -0.234300 -37.573700 -2.090400 8.020400 -22.821899 0.100300 0.288600 -19.171801 0.235700 -0.036400 -42.927898 -3.692800 10.483400 -31.064100 -0.142000 -0.289800 -16.912001 -0.144100 0.794700 12.257200 3.927100 -0.528800 63.296001 13.349200 0.476400 -0.000000 -0.000000 15.978400 -4.255200 10.299200 53.623100 7.559100 16.077600 -14.224700 -9.287600 -5.530100 0.361900 -1.619500 -1.608500 -8.351600 -1.032200 0.461900 1.253800 5.699100 -0.065200 -0.894900 7.419500 -0.081400 1.073000 9.871700 -0.523700 -3.152400 9.802200 -0.139300 -0.989400 6.596700 -0.024600 -0.237500 19.323900 -1.312300 -9.361200 11.759600 0.024900 -0.553700 4.808100 0.004600 1.757900 26.018700 -2.240100 -12.033900 16.748301 -0.135400 -0.117800 4.080700 -0.200800 2.091200 11.760400 11.674500 -4.955500 3.850100 -6.251700 -2.416400 -13.987000 -0.959600 4.995300 -3.721700 -0.000000 -0.000000 -33.254700 -0.196700 4.590300 30.612101 -7.068200 -5.189200 -6.937100 -16.389700 -0.234800 0.705600 -0.000000 0.000000 
0.964927 0.718561 -0.024063 87.752800 1.540100 1.782900 3.327000 -11.953600 -0.629900 1.411600 -16.844801 1.971100 1.255800 -16.805599 2.280300 3.806600 -4.915600 0.153300 -0.000000 0.000000 -0.000000 -12.475800 -36.919102 0.572500 -14.127900 6.797900 -24.929399 -43.888802 14.504400 -13.562700 -0.000000 0.000000 -17.554199 -26.367599 3.252700 20.976400 -4.643700 13.629800 11.537900 9.987700 -5.157700 11.661000 3.089900 -0.022900 8.670900 -28.149599 -1.457600 2.540800 -19.488501 -0.268100 0.725500 -13.749400 -0.017100 0.235400 -13.415000 0.059800 -1.261400 -12.387000 -0.148400 0.752200 -13.372300 -0.016600 -0.233300 -37.812500 -2.090500 7.819300 -22.320200 0.098000 0.289400 -18.679100 0.230600 -0.036500 -43.143200 -3.589100 10.341800 -30.424500 -0.139800 -0.286800 -16.272600 -0.139300 0.797600 12.827900 3.688400 -2.868200 64.404404 15.731300 -5.865500 0.000000 -0.000000 18.279900 -2.573300 5.245000 51.192799 7.926300 16.363899 -13.647700 -9.228800 -6.096300 0.049400 -1.651800 -1.622100 -8.275900 1.846600 0.365100 1.284100 6.913900 -0.084400 -0.916800 9.769000 -0.088100 1.028200 13.465000 -0.737300 -3.145800 12.278700 -0.187600 -1.027600 9.505500 -0.037600 -0.289300 23.349800 -1.553300 -9.331200 14.677900 0.023800 -0.607000 8.374500 0.031800 1.690800 30.555099 -2.681700 -11.798500 20.809000 -0.180700 -0.182400 8.103000 -0.242900 2.020100 15.617800 13.365200 -4.190200 3.672400 -7.235800 -2.778200 -14.948000 -2.972100 4.296700 -7.327000 0.000000 -0.000000 -36.292099 -1.188800 3.813900 24.212500 -5.624400 -4.093900 -10.946800 -13.004700 3.450100 -0.389700 0.000000 -0.000000 
